<svg version="1.1" id="Layer_1" xmlns="http://www.w3.org/2000/svg" xmlns:xlink="http://www.w3.org/1999/xlink" x="0px" y="0px"
	 width="100%" viewBox="0 0 624 368" enable-background="new 0 0 624 368" xml:space="preserve">
<path fill="#000000" opacity="1.000000" stroke="none" 
	d="
M290.084900,109.926804 
	C264.482239,94.842445 237.838699,83.526756 208.786331,78.142143 
	C176.284042,72.118118 144.256134,73.902908 112.468185,82.593002 
	C88.646126,89.105415 66.458656,99.117004 45.996151,112.958893 
	C43.519096,114.634506 40.979000,116.288780 38.279572,117.549088 
	C32.352779,120.316208 26.592566,118.744751 22.806486,113.619392 
	C18.883215,108.308281 19.043663,102.014961 23.731796,97.255486 
	C28.791393,92.118919 35.082886,88.505257 41.200005,84.838417 
	C68.751038,68.323303 98.308662,57.058655 130.077759,51.895050 
	C186.951675,42.651028 240.242935,53.578754 290.760803,80.397575 
	C309.024902,90.093613 325.513733,102.694313 343.998566,112.061188 
	C366.787628,123.609146 390.622559,131.791138 415.854706,135.410477 
	C457.289246,141.353912 497.032715,134.650848 535.323792,118.186050 
	C549.011597,112.300430 561.583435,104.504440 574.045593,96.447113 
	C581.052673,91.916763 586.130249,92.028923 591.061340,96.102859 
	C596.929993,100.951401 597.623291,109.170387 592.277710,114.562462 
	C586.966919,119.919441 580.444946,123.757507 574.023193,127.581627 
	C547.001587,143.672775 518.044861,154.831512 486.983063,159.898834 
	C465.237518,163.446320 443.348602,164.209229 421.291290,161.944977 
	C372.718353,156.958786 330.066254,137.389755 290.084900,109.926804 
z"/>
<path fill="#000000" opacity="1.000000" stroke="none" 
	d="
M180.433563,249.769073 
	C156.862335,248.813263 134.201706,251.585800 111.898331,257.753265 
	C88.255478,264.291107 66.243149,274.269806 45.924740,288.009186 
	C43.721386,289.499115 41.480907,290.976868 39.111671,292.170532 
	C32.611603,295.445374 26.320398,293.868011 22.451227,288.163696 
	C18.575314,282.449432 19.210926,275.762909 24.823452,271.174652 
	C29.836014,267.076813 35.230511,263.354797 40.799717,260.044403 
	C71.944489,241.531677 105.328232,229.750366 141.492966,225.473206 
	C195.180725,219.123611 244.930511,230.879959 292.070801,256.178223 
	C310.864319,266.263977 327.865479,279.323944 347.139404,288.643860 
	C373.805664,301.538330 401.585754,309.953674 431.261353,311.817322 
	C482.298309,315.022522 528.682556,301.467926 571.075256,273.332947 
	C572.599609,272.321259 574.143555,271.324341 575.751282,270.455505 
	C582.880493,266.602783 589.868958,268.023010 593.686096,274.047485 
	C597.809448,280.555237 596.326233,287.352661 589.416138,292.278381 
	C572.516174,304.325256 554.315674,313.972992 535.004944,321.575592 
	C504.220978,333.695160 472.217194,339.121826 439.255829,338.114807 
	C400.217438,336.922150 363.468750,326.806763 328.890839,308.484833 
	C312.955200,300.040955 298.260437,289.628540 282.652985,280.694031 
	C256.813171,265.902008 229.239166,255.979080 199.777771,251.528549 
	C193.540054,250.586258 187.188797,250.395477 180.433563,249.769073 
z"/>
</svg>